<svg xmlns="http://www.w3.org/2000/svg" aria-hidden="true" style="position:absolute;width:0;height:0;overflow:hidden"><defs><symbol id="icon-arrow-back" viewBox="0 0 32 32"><path fill="none" stroke="#f3f0e8" stroke-linecap="round" stroke-linejoin="round" stroke-width="1.333" d="m20 24-8-8 8-8" style="stroke:var(--color1, #f3f0e8)"/></symbol><symbol id="icon-arrow-left" viewBox="0 0 32 32"><path d="M30.667.333H1.334a1 1 0 0 0-1 1v29.333a1 1 0 0 0 1 1h29.333a1 1 0 0 0 1-1V1.333a1 1 0 0 0-1-1"/><path fill="none" stroke="#4b5b4a" stroke-width=".667" d="M30.667.333H1.334a1 1 0 0 0-1 1v29.333a1 1 0 0 0 1 1h29.333a1 1 0 0 0 1-1V1.333a1 1 0 0 0-1-1z" style="stroke:var(--color2, #4b5b4a)"/><path fill="none" stroke="#f3f0e8" stroke-linecap="square" stroke-linejoin="round" stroke-width="2.667" d="M18.667 21.333 13.334 16l5.333-5.333" style="stroke:var(--color1, #f3f0e8)"/></symbol><symbol id="icon-arrow-right" viewBox="0 0 32 32"><path d="M30.667.333H1.334a1 1 0 0 0-1 1v29.333a1 1 0 0 0 1 1h29.333a1 1 0 0 0 1-1V1.333a1 1 0 0 0-1-1"/><path fill="none" stroke="#4b5b4a" stroke-width=".667" d="M30.667.333H1.334a1 1 0 0 0-1 1v29.333a1 1 0 0 0 1 1h29.333a1 1 0 0 0 1-1V1.333a1 1 0 0 0-1-1z" style="stroke:var(--color2, #4b5b4a)"/><path fill="none" stroke="#f3f0e8" stroke-linecap="square" stroke-linejoin="round" stroke-width="2.667" d="M13.333 21.333 18.666 16l-5.333-5.333" style="stroke:var(--color1, #f3f0e8)"/></symbol><symbol id="icon-caret" viewBox="0 0 32 32"><path fill="#4a8c52" d="M2.667 0h26.667a2.667 2.667 0 0 1 2.667 2.667v26.667a2.667 2.667 0 0 1-2.667 2.667H2.667A2.667 2.667 0 0 1 0 29.334V2.667A2.667 2.667 0 0 1 2.667 0" style="fill:var(--color3, #4a8c52)"/><path fill="none" stroke="#14181f" stroke-linecap="square" stroke-linejoin="round" stroke-width="2.667" d="M9.333 12.667 16 19.334l6.667-6.667" style="stroke:var(--color4, #14181f)"/></symbol><symbol id="icon-close" viewBox="0 0 24 24" fill="none">
  <rect width="24" height="24" rx="2" fill="#313640" />
  <path d="M8 8L12 12M12 12L8 16M12 12L16 16M12 12L16 8" stroke="#F3F0E8" stroke-linecap="square" stroke-linejoin="round" />
</symbol><symbol id="icon-email" viewBox="0 0 32 32"><path fill="#4a8c52" d="M7.999 10.667h2.667v2.667H7.999zm2.667 2.667h2.667v2.667h-2.667zm13.333-2.667h-2.667v2.667h2.667zm-2.666 2.667h-2.667v2.667h2.667zm-8 2.667h5.333v2.667h-5.333zm-10.667-8h2.667v16H2.666zm24 0h2.667v16h-2.667zM5.333 5.334h21.333v2.667H5.333zm0 18.667h21.333v2.667H5.333z" style="fill:var(--color3, #4a8c52)"/></symbol><symbol id="icon-menu" viewBox="0 0 24 24" fill="none">
  <rect width="24" height="24" rx="2" fill="#313640" />
  <path d="M6 8H17M6 16H17M6 12H17" stroke="#F3F0E8" stroke-linecap="square" />
</symbol></defs></svg>